<svg width="349pt" height="224pt" viewBox="0.00 0.00 348.76 224.00" xmlns="http://www.w3.org/2000/svg" xmlns:xlink="http://www.w3.org/1999/xlink">
<g id="graph0" class="graph" transform="scale(1 1) rotate(0) translate(4 220)">
<title>instance.start</title>
<polygon fill="white" stroke="none" points="-4,4 -4,-220 344.761,-220 344.761,4 -4,4"></polygon>
<!-- stopped -->
<g id="node1" class="node"><title>stopped</title>
<ellipse fill="none" stroke="black" cx="41" cy="-198" rx="41.1146" ry="18"></ellipse>
<text text-anchor="middle" x="41" y="-193.8" font-family="Times,serif" font-size="14.00">stopped</text>
</g>
<!-- starting -->
<g id="node2" class="node"><title>starting</title>
<ellipse fill="none" stroke="orange" cx="142" cy="-108" rx="40.0023" ry="18"></ellipse>
<text text-anchor="middle" x="142" y="-103.8" font-family="Times,serif" font-size="14.00">starting</text>
</g>
<!-- stopped&#45;&gt;starting -->
<g id="edge1" class="edge"><title>stopped-&gt;starting</title>
<g id="a_edge1"><a xlink:href="http://localhost:8080/v1/processdefinitions/1pd!instance.start" xlink:title="instance.start">
<path fill="none" stroke="black" stroke-dasharray="1,5" d="M45.1477,-179.881C48.6653,-168.487 54.7377,-153.856 64.5294,-144 74.1446,-134.322 86.9168,-127.07 99.3124,-121.753"></path>
<polygon fill="black" stroke="black" points="100.647,-124.989 108.659,-118.057 98.0731,-118.48 100.647,-124.989"></polygon>
</a>
</g>
<g id="a_edge1-label"><a xlink:href="http://localhost:8080/v1/processdefinitions/1pd!instance.start" xlink:title="instance.start">
<text text-anchor="middle" x="100.735" y="-148.8" font-family="Times,serif" font-size="14.00">instance.start</text>
</a>
</g>
</g>
<!-- running -->
<g id="node5" class="node"><title>running</title>
<ellipse fill="none" stroke="black" cx="142" cy="-18" rx="41.1161" ry="18"></ellipse>
<text text-anchor="middle" x="142" y="-13.8" font-family="Times,serif" font-size="14.00">running</text>
</g>
<!-- starting&#45;&gt;running -->
<g id="edge4" class="edge"><title>starting-&gt;running</title>
<g id="a_edge4"><a xlink:href="http://localhost:8080/v1/processdefinitions/1pd!instance.start" xlink:title="instance.start[logic=InstanceStart] ">
<path fill="none" stroke="green" stroke-width="2" d="M142,-89.614C142,-77.2403 142,-60.3686 142,-46.2198"></path>
<polygon fill="green" stroke="green" stroke-width="2" points="145.5,-46.0504 142,-36.0504 138.5,-46.0504 145.5,-46.0504"></polygon>
</a>
</g>
<g id="a_edge4-label"><a xlink:href="http://localhost:8080/v1/processdefinitions/1pd!instance.start" xlink:title="instance.start[logic=InstanceStart] ">
<text text-anchor="middle" x="241.38" y="-58.8" font-family="Times,serif" font-weight="bold" font-size="14.00">instance.start[logic=InstanceStart] </text>
</a>
</g>
</g>
<!-- creating -->
<g id="node3" class="node"><title>creating</title>
<ellipse fill="none" stroke="black" cx="142" cy="-198" rx="42.2038" ry="18"></ellipse>
<text text-anchor="middle" x="142" y="-193.8" font-family="Times,serif" font-size="14.00">creating</text>
</g>
<!-- creating&#45;&gt;starting -->
<g id="edge2" class="edge"><title>creating-&gt;starting</title>
<g id="a_edge2"><a xlink:href="http://localhost:8080/v1/processdefinitions/1pd!instance.start" xlink:title="instance.start">
<path fill="none" stroke="black" stroke-dasharray="1,5" d="M142,-179.614C142,-167.24 142,-150.369 142,-136.22"></path>
<polygon fill="black" stroke="black" points="145.5,-136.05 142,-126.05 138.5,-136.05 145.5,-136.05"></polygon>
</a>
</g>
<g id="a_edge2-label"><a xlink:href="http://localhost:8080/v1/processdefinitions/1pd!instance.start" xlink:title="instance.start">
<text text-anchor="middle" x="178.735" y="-148.8" font-family="Times,serif" font-size="14.00">instance.start</text>
</a>
</g>
</g>
<!-- restoring -->
<g id="node4" class="node"><title>restoring</title>
<ellipse fill="none" stroke="black" cx="247" cy="-198" rx="45.0427" ry="18"></ellipse>
<text text-anchor="middle" x="247" y="-193.8" font-family="Times,serif" font-size="14.00">restoring</text>
</g>
<!-- restoring&#45;&gt;starting -->
<g id="edge3" class="edge"><title>restoring-&gt;starting</title>
<g id="a_edge3"><a xlink:href="http://localhost:8080/v1/processdefinitions/1pd!instance.start" xlink:title="instance.start">
<path fill="none" stroke="black" stroke-dasharray="1,5" d="M241.299,-179.877C236.772,-168.48 229.452,-153.849 219,-144 209.218,-134.782 196.587,-127.682 184.396,-122.363"></path>
<polygon fill="black" stroke="black" points="185.358,-118.977 174.775,-118.473 182.734,-125.466 185.358,-118.977"></polygon>
</a>
</g>
<g id="a_edge3-label"><a xlink:href="http://localhost:8080/v1/processdefinitions/1pd!instance.start" xlink:title="instance.start">
<text text-anchor="middle" x="267.735" y="-148.8" font-family="Times,serif" font-size="14.00">instance.start</text>
</a>
</g>
</g>
</g>
</svg>
